<mxfile host="app.diagrams.net" agent="Mozilla/5.0 (Windows NT 10.0; Win64; x64) AppleWebKit/537.36 (KHTML, like Gecko) Chrome/131.0.0.0 Safari/537.36" version="25.0.3">
  <diagram id="C5RBs43oDa-KdzZeNtuy" name="Page-1">
    <mxGraphModel dx="749" dy="1853" grid="1" gridSize="10" guides="1" tooltips="1" connect="1" arrows="1" fold="1" page="1" pageScale="1" pageWidth="827" pageHeight="1169" math="0" shadow="0">
      <root>
        <mxCell id="WIyWlLk6GJQsqaUBKTNV-0" />
        <mxCell id="WIyWlLk6GJQsqaUBKTNV-1" parent="WIyWlLk6GJQsqaUBKTNV-0" />
        <mxCell id="StO1JO4dLpnTP3rDog0m-2" style="edgeStyle=orthogonalEdgeStyle;rounded=0;orthogonalLoop=1;jettySize=auto;html=1;exitX=0.5;exitY=1;exitDx=0;exitDy=0;entryX=0.5;entryY=0;entryDx=0;entryDy=0;" edge="1" parent="WIyWlLk6GJQsqaUBKTNV-1" source="StO1JO4dLpnTP3rDog0m-0" target="StO1JO4dLpnTP3rDog0m-1">
          <mxGeometry relative="1" as="geometry" />
        </mxCell>
        <mxCell id="StO1JO4dLpnTP3rDog0m-0" value="Начало" style="ellipse;whiteSpace=wrap;html=1;" vertex="1" parent="WIyWlLk6GJQsqaUBKTNV-1">
          <mxGeometry x="260" y="90" width="80" height="40" as="geometry" />
        </mxCell>
        <mxCell id="StO1JO4dLpnTP3rDog0m-4" style="edgeStyle=orthogonalEdgeStyle;rounded=0;orthogonalLoop=1;jettySize=auto;html=1;exitX=0.5;exitY=1;exitDx=0;exitDy=0;entryX=0.5;entryY=0;entryDx=0;entryDy=0;" edge="1" parent="WIyWlLk6GJQsqaUBKTNV-1" source="StO1JO4dLpnTP3rDog0m-1" target="StO1JO4dLpnTP3rDog0m-3">
          <mxGeometry relative="1" as="geometry" />
        </mxCell>
        <mxCell id="StO1JO4dLpnTP3rDog0m-1" value="cout &amp;lt;&amp;lt; &quot;Словарь:\n&quot;" style="shape=parallelogram;perimeter=parallelogramPerimeter;whiteSpace=wrap;html=1;fixedSize=1;" vertex="1" parent="WIyWlLk6GJQsqaUBKTNV-1">
          <mxGeometry x="215" y="160" width="170" height="30" as="geometry" />
        </mxCell>
        <mxCell id="StO1JO4dLpnTP3rDog0m-6" style="edgeStyle=orthogonalEdgeStyle;rounded=0;orthogonalLoop=1;jettySize=auto;html=1;exitX=0.5;exitY=1;exitDx=0;exitDy=0;entryX=0.5;entryY=0;entryDx=0;entryDy=0;" edge="1" parent="WIyWlLk6GJQsqaUBKTNV-1" source="StO1JO4dLpnTP3rDog0m-3" target="StO1JO4dLpnTP3rDog0m-5">
          <mxGeometry relative="1" as="geometry" />
        </mxCell>
        <mxCell id="StO1JO4dLpnTP3rDog0m-9" style="edgeStyle=orthogonalEdgeStyle;rounded=0;orthogonalLoop=1;jettySize=auto;html=1;exitX=1;exitY=0.5;exitDx=0;exitDy=0;entryX=0.5;entryY=0;entryDx=0;entryDy=0;" edge="1" parent="WIyWlLk6GJQsqaUBKTNV-1" source="StO1JO4dLpnTP3rDog0m-3" target="StO1JO4dLpnTP3rDog0m-8">
          <mxGeometry relative="1" as="geometry">
            <Array as="points">
              <mxPoint x="450" y="235" />
              <mxPoint x="450" y="360" />
              <mxPoint x="300" y="360" />
            </Array>
          </mxGeometry>
        </mxCell>
        <mxCell id="StO1JO4dLpnTP3rDog0m-3" value="for(auto a: mp)" style="shape=hexagon;perimeter=hexagonPerimeter2;whiteSpace=wrap;html=1;fixedSize=1;size=20;" vertex="1" parent="WIyWlLk6GJQsqaUBKTNV-1">
          <mxGeometry x="240" y="210" width="120" height="50" as="geometry" />
        </mxCell>
        <mxCell id="StO1JO4dLpnTP3rDog0m-7" style="edgeStyle=orthogonalEdgeStyle;rounded=0;orthogonalLoop=1;jettySize=auto;html=1;exitX=0.5;exitY=1;exitDx=0;exitDy=0;entryX=0;entryY=0.5;entryDx=0;entryDy=0;" edge="1" parent="WIyWlLk6GJQsqaUBKTNV-1" source="StO1JO4dLpnTP3rDog0m-5" target="StO1JO4dLpnTP3rDog0m-3">
          <mxGeometry relative="1" as="geometry">
            <Array as="points">
              <mxPoint x="300" y="340" />
              <mxPoint x="170" y="340" />
              <mxPoint x="170" y="235" />
            </Array>
          </mxGeometry>
        </mxCell>
        <mxCell id="StO1JO4dLpnTP3rDog0m-5" value="вывод a.first и a.second.get_data()" style="shape=parallelogram;perimeter=parallelogramPerimeter;whiteSpace=wrap;html=1;fixedSize=1;" vertex="1" parent="WIyWlLk6GJQsqaUBKTNV-1">
          <mxGeometry x="180" y="290" width="240" height="30" as="geometry" />
        </mxCell>
        <mxCell id="StO1JO4dLpnTP3rDog0m-8" value="конец" style="ellipse;whiteSpace=wrap;html=1;" vertex="1" parent="WIyWlLk6GJQsqaUBKTNV-1">
          <mxGeometry x="260" y="380" width="80" height="40" as="geometry" />
        </mxCell>
      </root>
    </mxGraphModel>
  </diagram>
</mxfile>
